<svg width="32" height="32" viewBox="0 0 32 32" fill="none" xmlns="http://www.w3.org/2000/svg">
<path fill-rule="evenodd" clip-rule="evenodd" d="M16 5.5V21.2929L8.85356 14.1464C8.6583 13.9512 8.34172 13.9512 8.14645 14.1464C7.95119 14.3417 7.95119 14.6583 8.14645 14.8536L16.1465 22.8536C16.3417 23.0488 16.6583 23.0488 16.8536 22.8536L24.8536 14.8536C25.0488 14.6583 25.0488 14.3417 24.8536 14.1464C24.6583 13.9512 24.3417 13.9512 24.1465 14.1464L17 21.2929V5.5C17 5.22386 16.7761 5 16.5 5C16.2239 5 16 5.22386 16 5.5ZM6.5 26C6.22386 26 6 26.2239 6 26.5C6 26.7761 6.22386 27 6.5 27H26.5C26.7761 27 27 26.7761 27 26.5C27 26.2239 26.7761 26 26.5 26H6.5Z" fill="#F7F8F8" fill-opacity="0.8"/>
</svg>
