<svg width="14" height="14" viewBox="0 0 14 14" fill="none" xmlns="http://www.w3.org/2000/svg">
<path fill-rule="evenodd" clip-rule="evenodd" d="M0.33776 1.61708C0 2.26729 0 3.12153 0 4.83V5H1V4.22C1 3.08102 1 2.51153 1.22517 2.07805C1.41492 1.71276 1.71276 1.41492 2.07805 1.22517C2.51153 1 3.08102 1 4.22 1H5V0H4.83C3.12153 0 2.26729 0 1.61708 0.33776C1.06915 0.622386 0.622386 1.06915 0.33776 1.61708ZM0 9.17V9H1V9.78C1 10.919 1 11.4885 1.22517 11.9219C1.41492 12.2872 1.71276 12.5851 2.07805 12.7748C2.51153 13 3.08102 13 4.22 13H5V14H4.83C3.12153 14 2.26729 14 1.61708 13.6622C1.06915 13.3776 0.622386 12.9309 0.33776 12.3829C0 11.7327 0 10.8785 0 9.17ZM14 5H13V4.22C13 3.08102 13 2.51153 12.7748 2.07805C12.5851 1.71276 12.2872 1.41492 11.9219 1.22517C11.4885 1 10.919 1 9.78 1H9V0H9.17C10.8785 0 11.7327 0 12.3829 0.33776C12.9309 0.622386 13.3776 1.06915 13.6622 1.61708C14 2.26729 14 3.12153 14 4.83V5ZM12.1601 11.4528C12.6866 10.7755 13.0001 9.92436 13.0001 9C13.0001 6.79086 11.2093 5 9.00012 5C6.79098 5 5.00012 6.79086 5.00012 9C5.00012 11.2091 6.79098 13 9.00012 13C9.92448 13 10.7756 12.6865 11.4529 12.1599L13.1466 13.8536C13.3418 14.0488 13.6584 14.0488 13.8537 13.8536C14.0489 13.6583 14.0489 13.3417 13.8537 13.1464L12.1601 11.4528ZM12.0001 9C12.0001 10.6569 10.657 12 9.00012 12C7.34327 12 6.00012 10.6569 6.00012 9C6.00012 7.34315 7.34327 6 9.00012 6C10.657 6 12.0001 7.34315 12.0001 9Z" fill="#F7F8F8" fill-opacity="0.8"/>
</svg>
